<svg width="35" height="324" viewBox="0 0 35 324" fill="none" xmlns="http://www.w3.org/2000/svg">
<path opacity="0.6" d="M17.2869 31.1143L17.2869 144.608" stroke="#10A5F8" stroke-dasharray="5 5"/>
<path opacity="0.6" d="M17.2869 179L17.2869 292.494" stroke="#FEAC23" stroke-dasharray="5 5"/>
<path d="M19.8668 176.421V166.963L33.6238 158.365V154.926L19.8668 159.226V149.767L23.3058 147.187V144.608L17.2868 146.328L11.2688 144.608V147.187L14.7078 149.766V159.224L0.950779 154.924V158.363L14.7078 166.963L14.7078 176.421C14.7078 177.106 14.9795 177.762 15.4633 178.245C15.947 178.729 16.6032 179.001 17.2873 179.001C17.9714 179.001 18.6275 178.729 19.1113 178.245C19.595 177.762 19.8668 177.106 19.8668 176.421Z" fill="#10A5F8"/>
<path opacity="0.3" d="M5.25071 15.6376C5.25071 22.2854 10.6399 27.6746 17.2877 27.6746C23.9356 27.6746 29.3247 22.2854 29.3247 15.6376C29.3247 8.98973 23.9356 3.60059 17.2877 3.60059C10.6399 3.60059 5.25071 8.98973 5.25071 15.6376Z" fill="#10A5F8"/>
<path opacity="0.2" d="M1.81179 15.6371C1.81179 24.1843 8.74063 31.1131 17.2878 31.1131C25.835 31.1131 32.7638 24.1843 32.7638 15.6371C32.7638 7.08997 25.835 0.161133 17.2878 0.161133C8.74063 0.161133 1.81179 7.08997 1.81179 15.6371Z" fill="#10A5F8"/>
<path opacity="0.6" d="M10.4098 15.6368C10.4098 19.4354 13.4892 22.5148 17.2878 22.5148C21.0864 22.5148 24.1658 19.4354 24.1658 15.6368C24.1658 11.8382 21.0864 8.75879 17.2878 8.75879C13.4892 8.75879 10.4098 11.8382 10.4098 15.6368Z" fill="#10A5F8"/>
<path opacity="0.3" d="M5.25071 307.971C5.25071 314.618 10.6399 320.008 17.2877 320.008C23.9356 320.008 29.3247 314.618 29.3247 307.971C29.3247 301.323 23.9356 295.934 17.2877 295.934C10.6399 295.934 5.25071 301.323 5.25071 307.971Z" fill="#FEAC23"/>
<path opacity="0.2" d="M1.81179 307.97C1.81179 316.517 8.74063 323.446 17.2878 323.446C25.835 323.446 32.7638 316.517 32.7638 307.97C32.7638 299.423 25.835 292.494 17.2878 292.494C8.74063 292.494 1.81179 299.423 1.81179 307.97Z" fill="#FEAC23"/>
<path opacity="0.6" d="M10.4098 307.97C10.4098 311.768 13.4892 314.848 17.2878 314.848C21.0864 314.848 24.1658 311.768 24.1658 307.97C24.1658 304.171 21.0864 301.092 17.2878 301.092C13.4892 301.092 10.4098 304.171 10.4098 307.97Z" fill="#FEAC23"/>
</svg>
