<svg
  width="1008"
  height="493"
  viewBox="0 0 1008 493"
  fill="none"
  xmlns="http://www.w3.org/2000/svg"
>
<path
    d="M908.946 381.827C886.567 347.862 856.106 319.985 820.297 300.696C784.487 281.407 744.449 271.309 703.775 271.31H609.659C576.127 271.31 542.911 264.815 511.849 252.184L318.149 173.418C287.086 160.787 253.871 154.292 220.339 154.292H194.346C170.138 154.292 146.191 149.284 124.011 139.583C101.831 129.883 81.8973 115.699 65.463 97.9237L-4.89801 21.8238C-11.0961 15.1199 -18.6138 9.77065 -26.9788 6.11212C-35.3437 2.45359 -44.375 0.564909 -53.505 0.564758V0.564758C-61.1838 0.564758 -68.5481 3.61515 -73.9778 9.04489C-79.4076 14.4746 -82.458 21.8389 -82.458 29.5178V246.453C-82.459 382.255 27.626 492.344 163.432 492.344L849.415 492.344C906.182 492.344 940.179 429.229 908.946 381.827Z"
    stroke="white"
  />
<path
    d="M951.937 381.827C929.558 347.862 899.098 319.985 863.288 300.696C827.478 281.407 787.44 271.309 746.766 271.31H652.65C619.118 271.31 585.903 264.815 554.84 252.184L361.14 173.418C330.078 160.787 296.863 154.292 263.33 154.292H237.337C213.129 154.292 189.182 149.284 167.002 139.583C144.822 129.883 124.888 115.699 108.454 97.9237L38.0931 21.8238C31.895 15.1199 24.3773 9.77065 16.0123 6.11212C7.64739 2.45359 -1.3839 0.564909 -10.5139 0.564758V0.564758C-18.1927 0.564758 -25.557 3.61515 -30.9868 9.04489C-36.4165 14.4746 -39.4669 21.8389 -39.4669 29.5178V246.453C-39.4679 382.255 70.6171 492.344 206.423 492.344L892.406 492.344C949.173 492.344 983.17 429.229 951.937 381.827Z"
    stroke="white"
  />
<path
    d="M994.927 381.827C972.548 347.862 942.088 319.985 906.278 300.696C870.468 281.407 830.43 271.309 789.756 271.31H695.64C662.108 271.31 628.893 264.815 597.83 252.184L404.13 173.418C373.068 160.787 339.853 154.292 306.32 154.292H280.327C256.119 154.292 232.172 149.284 209.992 139.583C187.812 129.883 167.878 115.699 151.444 97.9237L81.0831 21.8238C74.885 15.1199 67.3673 9.77065 59.0023 6.11212C50.6374 2.45359 41.6061 0.564909 32.4761 0.564758V0.564758C24.7973 0.564758 17.433 3.61515 12.0032 9.04489C6.57349 14.4746 3.52307 21.8389 3.52307 29.5178V246.453C3.52207 382.255 113.607 492.344 249.413 492.344L935.396 492.344C992.163 492.344 1026.16 429.229 994.927 381.827Z"
    stroke="white"
  />
</svg>
