<svg width="388" height="1448" viewBox="0 0 388 1448" fill="none" xmlns="http://www.w3.org/2000/svg">
<path d="M387.065 1447.25H0.153792V602.729C0.0906507 509.84 13.16 417.409 38.9738 328.179L108.222 89.8107C142.667 -28.9083 244.554 -28.9083 279.054 89.8107L348.287 328.23C374.07 417.424 387.124 509.814 387.062 602.66L387.065 1447.25Z" fill="white"/>
<path opacity="0.2" d="M257.407 247.08L274.622 214.269L194.016 169.06V209.676L257.407 247.08Z" fill="url(#paint0_linear_0_1)"/>
<path opacity="0.2" d="M125.963 247.08L108.748 214.269L189.368 169.06V209.676L125.963 247.08Z" fill="url(#paint1_linear_0_1)"/>
<path opacity="0.2" d="M263.877 252.465L277.177 267.682L320.214 267.029L282.198 220.565L263.877 252.465Z" fill="url(#paint2_linear_0_1)"/>
<path opacity="0.2" d="M119.792 252.465L106.477 267.682L63.4398 267.03L101.471 220.565L119.792 252.465Z" fill="url(#paint3_linear_0_1)"/>
<path opacity="0.2" d="M321.459 273.453L339.566 331.046L297.59 318.373L281.959 273.453H321.459Z" fill="url(#paint4_linear_0_1)"/>
<path opacity="0.2" d="M62.0378 273.453L43.9378 331.046L85.8988 318.373L101.53 273.453H62.0378Z" fill="url(#paint5_linear_0_1)"/>
<defs>
<linearGradient id="paint0_linear_0_1" x1="234.319" y1="169.06" x2="234.319" y2="247.08" gradientUnits="userSpaceOnUse">
<stop stop-color="#636363"/>
<stop offset="0.531" stop-color="#645D5D"/>
<stop offset="1" stop-color="#655757"/>
</linearGradient>
<linearGradient id="paint1_linear_0_1" x1="149.058" y1="169.06" x2="149.058" y2="247.08" gradientUnits="userSpaceOnUse">
<stop stop-color="#636363"/>
<stop offset="0.531" stop-color="#645D5D"/>
<stop offset="1" stop-color="#655757"/>
</linearGradient>
<linearGradient id="paint2_linear_0_1" x1="292.045" y1="220.565" x2="292.045" y2="267.682" gradientUnits="userSpaceOnUse">
<stop stop-color="#636363"/>
<stop offset="0.531" stop-color="#645D5D"/>
<stop offset="1" stop-color="#655757"/>
</linearGradient>
<linearGradient id="paint3_linear_0_1" x1="91.6158" y1="220.565" x2="91.6158" y2="267.682" gradientUnits="userSpaceOnUse">
<stop stop-color="#636363"/>
<stop offset="0.531" stop-color="#645D5D"/>
<stop offset="1" stop-color="#655757"/>
</linearGradient>
<linearGradient id="paint4_linear_0_1" x1="310.762" y1="273.453" x2="310.762" y2="331.046" gradientUnits="userSpaceOnUse">
<stop stop-color="#636363"/>
<stop offset="0.531" stop-color="#645D5D"/>
<stop offset="1" stop-color="#655757"/>
</linearGradient>
<linearGradient id="paint5_linear_0_1" x1="72.7338" y1="273.453" x2="72.7338" y2="331.046" gradientUnits="userSpaceOnUse">
<stop stop-color="#636363"/>
<stop offset="0.531" stop-color="#645D5D"/>
<stop offset="1" stop-color="#655757"/>
</linearGradient>
</defs>
</svg>
